<svg width="27" height="25" viewBox="0 0 27 25" fill="none" xmlns="http://www.w3.org/2000/svg">
<path fill-rule="evenodd" clip-rule="evenodd" d="M9.78032 4.98693C10.5205 3.60147 12.0077 2.63635 13.7605 2.63635C15.5133 2.63635 17.0004 3.60147 17.7406 4.98693L13.7605 4.98693H13.7604L9.78032 4.98693ZM20.1133 5.71682C20.0617 5.46793 19.9953 5.22432 19.915 4.98693C19.0596 2.45953 16.6274 0.636353 13.7605 0.636353C10.8936 0.636353 8.46135 2.45953 7.60599 4.98693C7.52565 5.22433 7.45922 5.46793 7.40765 5.71682H1.42869C1.10567 5.71682 0.867422 6.01853 0.942321 6.33275L5.24526 24.3845C5.29893 24.6097 5.50015 24.7686 5.73163 24.7686H21.7894C22.0209 24.7686 22.2221 24.6097 22.2758 24.3845L26.5787 6.33275C26.6536 6.01853 26.4154 5.71682 26.0923 5.71682H20.1133ZM7.27797 6.98693H2.35389L6.19813 23.1144C6.25181 23.3396 6.45302 23.4985 6.6845 23.4985H20.8365C21.068 23.4985 21.2692 23.3396 21.3229 23.1144L25.1672 6.98693H9.27797H7.27797Z" fill="white"/>
</svg>
