<svg width="110" height="36" viewBox="0 0 110 36" fill="none" xmlns="http://www.w3.org/2000/svg">
<path fill-rule="evenodd" clip-rule="evenodd" d="M10.2597 35.2405L9.59539 35.2405L6.93821 35.2405C6.71678 35.2405 6.42153 35.2405 6.12629 35.1667L5.31437 35.1667C5.01913 35.1667 4.57627 35.019 4.35484 34.65C4.1334 34.2809 4.1334 33.9857 4.1334 33.6905L4.1334 32.8785C4.1334 32.6571 4.05959 32.4357 3.98578 32.2142C3.76435 31.8452 3.54292 31.7714 3.17386 31.9928C2.95243 32.1404 2.731 32.2881 2.50957 32.5095C2.28814 32.7309 1.9929 32.9523 1.55003 33.0262C1.10717 33.1 0.590493 32.8785 0.369061 32.5095C0.0738187 32.1404 8.14797e-06 31.7714 8.1641e-06 31.4023C0.139226 28.2467 0.132563 25.3246 0.126767 22.7825C0.123345 21.2813 0.120225 19.9127 0.14763 18.7069L0.14763 17.5997L0.14763 16.4926C0.120225 15.2868 0.123346 13.9181 0.126768 12.4169C0.132564 9.87492 0.139227 6.95274 9.37076e-06 3.79715C0.07382 3.42809 0.147631 3.05904 0.369062 2.68999C0.590494 2.32093 1.10717 2.0995 1.55003 2.17331C1.9929 2.24712 2.28814 2.46856 2.50957 2.68999C2.63902 2.78707 2.74009 2.86997 2.83144 2.9449C2.94845 3.04087 3.04952 3.12376 3.17387 3.20666C3.54292 3.5019 3.76435 3.35428 3.98578 2.98523C4.05959 2.7638 4.13341 2.54237 4.13341 2.32093L4.13341 1.50902C4.13341 1.21377 4.13341 0.918532 4.35484 0.549479C4.57627 0.106615 5.01913 0.0328041 5.31438 0.0328041C5.51758 -0.017997 5.72078 0.00113084 5.89992 0.0179935C5.98106 0.0256311 6.05726 0.0328041 6.12629 0.0328041L6.8644 0.0328041L9.52158 0.0328043L10.1859 0.0328043L10.8502 0.0328043L13.5074 0.0328044L14.2455 0.0328045L15.0574 0.0328045C15.3526 0.0328045 15.7217 0.180426 16.0169 0.549479C16.2384 0.918532 16.2384 1.21377 16.2384 1.50902L16.2384 2.32093C16.2384 2.54237 16.2384 2.7638 16.3122 2.98523C16.5336 3.35428 16.755 3.50191 17.1241 3.20666C17.3455 3.13285 17.5669 2.91142 17.7884 2.68999L17.7884 2.68999C18.0098 2.46856 18.305 2.24712 18.7479 2.17331C19.1908 2.0995 19.7075 2.32093 19.9289 2.68999C20.2241 3.05904 20.2979 3.42809 20.2979 3.79715C20.1184 7.86674 20.133 11.5481 20.1449 14.5659C20.1477 15.27 20.1503 15.938 20.1503 16.5664C20.0765 16.9354 20.0765 17.3045 20.0765 17.6735C20.1503 18.0426 20.1503 18.4117 20.1503 18.7807C20.2169 20.2452 20.2384 21.9499 20.2623 23.8405C20.2914 26.1426 20.324 28.7203 20.4456 31.4761C20.3717 31.8452 20.2979 32.2142 20.0765 32.5833C19.8551 32.9524 19.3384 33.1738 18.8955 33.1C18.4527 33.0262 18.1574 32.8047 17.936 32.5833C17.8065 32.4862 17.7055 32.4033 17.6141 32.3284C17.4971 32.2324 17.396 32.1495 17.2717 32.0666C16.9026 31.7714 16.6812 31.919 16.4598 32.2881C16.386 32.5095 16.3122 32.7309 16.3122 32.9524L16.3122 33.7643C16.3122 34.0595 16.3122 34.3548 16.0907 34.7238C15.8693 35.1667 15.4264 35.2405 15.1312 35.2405C14.928 35.2913 14.7248 35.2722 14.5456 35.2553C14.4645 35.2477 14.3883 35.2405 14.3193 35.2405L13.5812 35.2405L10.924 35.2405L10.2597 35.2405ZM1.01533 20.7488C1.10299 23.7314 1.21151 27.4235 1.03336 31.4023C1.03336 31.9928 1.3286 32.3619 1.69765 32.2142C1.84527 32.2142 2.06671 32.0666 2.28814 31.919L2.36195 31.8452C2.14052 30.5166 1.9929 24.6117 1.9929 17.5259C1.9929 10.6615 2.06671 4.90431 2.28814 3.35428C2.28814 3.28047 2.21433 3.28047 2.21433 3.28047C1.9929 3.13285 1.77147 2.98523 1.62384 2.98523C1.3286 2.91142 1.03336 3.28047 1.03336 3.79715C1.21151 7.77594 1.10299 11.4681 1.01533 14.4507C0.994037 15.1752 0.973972 15.8578 0.959546 16.4926L0.959546 17.5997L0.959546 18.7069C0.973971 19.3416 0.994037 20.0243 1.01533 20.7488ZM19.4122 16.4926C19.3384 13.3187 19.2646 8.74246 19.486 3.87096C19.486 3.28047 19.1908 2.91142 18.8955 2.98523C18.8681 2.99897 18.838 3.01271 18.8059 3.0274C18.6655 3.09163 18.4853 3.17407 18.305 3.35428C18.2312 3.42809 18.0836 3.57572 17.936 3.64953C18.0836 5.05193 18.2312 10.7353 18.2312 17.5997C18.2312 24.4641 18.1574 30.2214 17.936 31.6238C18.0225 31.7102 18.1089 31.7714 18.1806 31.822C18.2312 31.8579 18.2745 31.8884 18.305 31.919C18.5265 32.0666 18.7479 32.2142 18.8955 32.2142C19.1908 32.2881 19.486 31.919 19.486 31.4023C19.2646 26.457 19.3384 21.9546 19.4122 18.7069L19.4122 17.5997L19.4122 16.4926ZM8.19299 31.5499L9.07872 31.7714L9.07875 31.7714C9.5216 31.8452 9.96446 31.919 10.4073 31.919C10.8502 31.919 11.3668 31.8452 11.8097 31.7714L12.6954 31.5499C13.0645 31.4761 13.2859 31.3285 13.2121 31.3285L13.1383 31.2547C13.1077 31.2547 13.0645 31.242 13.0138 31.2272C12.9422 31.2062 12.8557 31.1809 12.7692 31.1809C12.6899 31.1611 12.5892 31.1465 12.4758 31.1302C12.1672 31.0858 11.7645 31.0277 11.4407 30.8118C11.2192 30.5904 10.9978 30.369 10.924 30.0737C10.7764 29.7785 10.8502 29.4094 11.0716 29.1142C11.4044 28.726 11.7788 28.5878 12.0697 28.4804C12.1659 28.4449 12.253 28.4128 12.3264 28.3761C12.6216 28.2285 12.7692 27.9332 12.8431 27.5642C12.9169 27.1951 12.8431 26.8999 12.5478 26.6784C12.4361 26.5667 12.3137 26.4655 12.1848 26.3589C11.9732 26.1839 11.7438 25.9941 11.5145 25.7189C11.3668 25.4975 11.2192 25.276 11.1454 24.9808C11.1454 24.6856 11.2192 24.3165 11.3668 24.0951C11.6621 23.6817 12.0518 23.5518 12.3848 23.4408C12.4681 23.4131 12.5478 23.3865 12.6216 23.357C12.7692 23.2832 12.9907 23.2093 12.9907 23.2093L12.9907 23.1355C12.9169 22.9141 12.7692 22.8403 12.4002 22.8403L11.8835 22.8403C11.5883 22.8403 11.293 22.7665 11.2192 22.4712L11.2192 22.1022L11.2192 21.8808C11.2192 21.8069 11.2377 21.7331 11.2561 21.6593C11.2746 21.5855 11.293 21.5117 11.293 21.4379L11.293 21.2165L10.6287 21.2165C10.2597 21.2165 9.89063 21.2165 9.52158 21.1426C9.59539 21.2165 9.59539 21.3641 9.59539 21.4379C9.59539 21.5117 9.61384 21.5855 9.6323 21.6593C9.65075 21.7331 9.6692 21.8069 9.6692 21.8808L9.6692 22.1022C9.6692 22.1545 9.67846 22.1975 9.68715 22.2378C9.70297 22.3114 9.71687 22.3759 9.6692 22.4712C9.59539 22.6927 9.30015 22.8403 9.00491 22.8403L8.48823 22.8403C8.19299 22.8403 7.97156 22.9141 7.89775 23.1355C7.82394 23.2093 7.89775 23.2093 7.89775 23.2093C7.89775 23.2093 8.04537 23.2832 8.2668 23.357C8.34061 23.3865 8.42033 23.4131 8.50359 23.4408C8.83662 23.5518 9.22634 23.6817 9.52158 24.0951C9.74301 24.3165 9.81682 24.6856 9.74301 24.9808C9.6692 25.276 9.52158 25.4975 9.37396 25.7189C9.1446 25.9941 8.91523 26.1838 8.70359 26.3589C8.57469 26.4655 8.45236 26.5667 8.34061 26.6784C8.11918 26.8999 7.97156 27.1951 8.04537 27.5642C8.04537 27.9332 8.2668 28.2285 8.56204 28.3761C8.63544 28.4128 8.72252 28.4449 8.81875 28.4804C9.10961 28.5878 9.48405 28.726 9.81682 29.1142C10.0383 29.4094 10.0383 29.7785 9.96444 30.0737C9.89063 30.369 9.6692 30.6642 9.44777 30.8118C9.00491 31.1809 8.41442 31.1809 8.11918 31.1809C7.89775 31.1809 7.82394 31.1809 7.75013 31.2547C7.67631 31.2547 7.67631 31.3285 7.67631 31.3285C7.67631 31.3285 7.89775 31.4761 8.19299 31.5499ZM8.41265 4.21689C8.72119 4.26134 9.12395 4.31937 9.44777 4.53525C9.6692 4.68287 9.89064 4.90431 9.96445 5.19955C10.0383 5.49479 10.0383 5.86384 9.96445 6.2329C9.63168 6.62113 9.25723 6.75932 8.96637 6.86666C8.87014 6.90217 8.78306 6.93431 8.70966 6.971C8.41442 7.11863 8.2668 7.41387 8.19299 7.78292C8.11918 8.15198 8.19299 8.44722 8.48823 8.66865C8.59998 8.7804 8.72231 8.88158 8.85121 8.98819C9.06285 9.16324 9.29222 9.35295 9.52158 9.62819C9.6692 9.84962 9.81682 10.0711 9.89064 10.3663C9.89064 10.6615 9.81682 11.0306 9.6692 11.252C9.37396 11.6654 8.98424 11.7953 8.65121 11.9063C8.56795 11.934 8.48823 11.9606 8.41442 11.9901C8.2668 12.0639 8.04537 12.1378 8.04537 12.1378L8.04537 12.2116C8.11918 12.433 8.2668 12.5068 8.63585 12.5068L9.15253 12.5068C9.44777 12.5068 9.74301 12.5806 9.81682 12.8759L9.81682 13.2449L9.81682 13.4663C9.81682 13.5402 9.79837 13.614 9.77992 13.6878C9.76147 13.7616 9.74301 13.8354 9.74301 13.9092C9.6692 14.0568 9.6692 14.1306 9.6692 14.2783C10.0382 14.2044 10.4073 14.2044 10.7763 14.2044L10.7764 14.2044L11.4407 14.2044C11.3668 14.1306 11.3668 13.983 11.3668 13.9092C11.3668 13.8354 11.3484 13.7616 11.3299 13.6878C11.3115 13.614 11.293 13.5402 11.293 13.4663L11.293 13.2449C11.293 13.1926 11.2838 13.1496 11.2751 13.1093C11.2593 13.0357 11.2454 12.9712 11.293 12.8759C11.3668 12.6544 11.6621 12.5068 11.9573 12.5068L12.474 12.5068C12.7692 12.5068 12.9907 12.433 13.0645 12.2116C13.1383 12.1378 13.0645 12.1378 13.0645 12.1378C13.0645 12.1378 12.9169 12.0639 12.6954 11.9901C12.6216 11.9606 12.5419 11.934 12.4587 11.9063C12.1256 11.7953 11.7359 11.6654 11.4407 11.252C11.2192 11.0306 11.1454 10.6615 11.2192 10.3663C11.293 10.0711 11.4407 9.84962 11.5883 9.62819C11.8176 9.35295 12.047 9.16324 12.2587 8.98819C12.3875 8.88158 12.5099 8.7804 12.6216 8.66865C12.8431 8.44722 12.9907 8.15198 12.9169 7.78292C12.9169 7.41387 12.6954 7.11863 12.4002 6.971C12.3268 6.93431 12.2397 6.90217 12.1435 6.86666C11.8526 6.75932 11.4782 6.62113 11.1454 6.2329C10.924 5.93766 10.924 5.5686 10.9978 5.27336C11.0716 4.97812 11.293 4.68287 11.5145 4.53525C11.9573 4.1662 12.5478 4.1662 12.8431 4.1662C13.0645 4.1662 13.1383 4.1662 13.2121 4.09239C13.2859 4.09239 13.2859 4.01858 13.2859 4.01858C13.2859 4.01858 13.0645 3.87096 12.7693 3.79715L11.8835 3.57572C11.8179 3.56634 11.7535 3.55696 11.6901 3.54774C11.2543 3.48435 10.8677 3.42809 10.4811 3.42809C10.0383 3.42809 9.52158 3.5019 9.07872 3.57572L8.19299 3.79715C7.82394 3.87096 7.6025 4.01858 7.67632 4.01858L7.75013 4.09239C7.7807 4.09239 7.82394 4.10505 7.87459 4.11989C7.94623 4.14087 8.03271 4.1662 8.11918 4.1662C8.19854 4.18604 8.29923 4.20055 8.41265 4.21689ZM14.9664 18.5771C14.7697 18.9909 14.3969 19.344 14.024 19.5926C13.1776 20.1569 12.2636 20.3841 11.6689 20.532C11.6413 20.5389 11.6145 20.5456 11.5883 20.5521C11.3214 20.6188 11.0997 20.6554 10.937 20.6822C10.7396 20.7148 10.6288 20.7331 10.6288 20.7735C10.6288 20.6997 10.2597 20.6259 9.5216 20.5521C9.49544 20.5456 9.46856 20.5389 9.441 20.532C8.84625 20.3841 7.93234 20.1569 7.08585 19.5926C6.7168 19.2973 6.27393 18.8545 6.0525 18.3378C5.83107 17.8211 5.90488 17.1568 6.34774 16.6401C7.23347 15.533 8.93111 15.0163 10.5549 15.0163C10.5797 15.0174 10.6045 15.0186 10.6293 15.0198C10.6537 15.0186 10.6781 15.0174 10.7026 15.0164C12.3264 15.0164 14.024 15.533 14.9098 16.6402C15.205 17.0831 15.3526 17.7474 15.1312 18.264C15.085 18.3718 15.0292 18.4764 14.9664 18.5771Z" fill="white"/>
<path d="M37.7071 4.80303C38.7509 5.0165 39.5312 5.43327 40.048 6.05334C40.5649 6.66325 40.8334 7.31382 40.8537 8.00505C40.8537 8.01522 40.8537 8.02538 40.8537 8.03555C40.8537 8.04571 40.8537 8.05588 40.8537 8.06604C40.8436 8.89959 40.4838 9.66197 39.7744 10.3532C39.0752 11.0444 38.0465 11.39 36.6886 11.39L30.3649 11.4053C30.1622 11.3951 30.0051 11.3494 29.8937 11.2681C29.7923 11.1867 29.7366 11.0953 29.7264 10.9936C29.7264 10.9834 29.7264 10.9733 29.7264 10.9631C29.7264 10.9631 29.7264 10.958 29.7264 10.9479C29.7264 10.8462 29.7822 10.7496 29.8937 10.6582C30.0153 10.5565 30.1875 10.5057 30.4105 10.5057L30.5321 10.3989V1.03685C30.3092 1.03685 30.1318 0.991102 30.0001 0.899616C29.8785 0.808129 29.8075 0.706478 29.7872 0.594661C29.7771 0.584496 29.772 0.574331 29.772 0.564166C29.772 0.543835 29.772 0.528587 29.772 0.518422C29.772 0.416771 29.8176 0.330367 29.9089 0.259211C30.0102 0.17789 30.1571 0.13723 30.3497 0.13723H37.0686C38.1834 0.13723 39.0296 0.386275 39.6072 0.884367C40.1848 1.37229 40.4737 1.91613 40.4737 2.51587C40.4737 3.0343 40.2456 3.51714 39.7896 3.96441C39.3336 4.40151 38.6394 4.68105 37.7071 4.80303ZM36.1717 9.94151V5.96186C36.1717 5.76872 36.0805 5.62641 35.8981 5.53492C35.7258 5.44344 35.5333 5.39769 35.3205 5.39769C35.1077 5.39769 34.9151 5.44852 34.7428 5.55017C34.5705 5.64166 34.4844 5.77889 34.4844 5.96186C34.4844 6.00252 34.4996 6.0381 34.53 6.06859C34.5604 6.09909 34.5959 6.12958 34.6364 6.16008C34.6364 6.16008 34.6364 6.16516 34.6364 6.17533C34.6466 6.17533 34.6516 6.17533 34.6516 6.17533C34.7023 6.20582 34.7428 6.2414 34.7732 6.28206C34.8138 6.31256 34.834 6.35322 34.834 6.40404V9.46883C34.834 9.50949 34.8138 9.55016 34.7732 9.59082C34.7428 9.63148 34.7074 9.66705 34.6668 9.69755C34.6567 9.69755 34.6466 9.70263 34.6364 9.7128C34.5959 9.74329 34.5604 9.77379 34.53 9.80428C34.4996 9.83478 34.4844 9.87036 34.4844 9.91102C34.4844 10.1042 34.5705 10.2465 34.7428 10.338C34.9151 10.4193 35.1026 10.4599 35.3053 10.4599C35.3154 10.4599 35.3205 10.4599 35.3205 10.4599C35.3306 10.4599 35.3407 10.4599 35.3509 10.4599C35.5536 10.4498 35.741 10.3989 35.9133 10.3075C36.0856 10.216 36.1717 10.094 36.1717 9.94151ZM36.1717 3.90342V1.61626C36.1717 1.42312 36.0805 1.28081 35.8981 1.18932C35.7258 1.09784 35.5333 1.05209 35.3205 1.05209C35.1077 1.05209 34.9151 1.10292 34.7428 1.20457C34.5705 1.29606 34.4844 1.43329 34.4844 1.61626C34.4844 1.65692 34.4996 1.6925 34.53 1.72299C34.5604 1.75349 34.5959 1.78398 34.6364 1.81448C34.6466 1.81448 34.6516 1.81448 34.6516 1.81448C34.6516 1.81448 34.6567 1.81956 34.6668 1.82973C34.7074 1.86022 34.7428 1.89072 34.7732 1.92121C34.8138 1.95171 34.834 1.99237 34.834 2.04319V3.43074C34.834 3.4714 34.8188 3.50698 34.7884 3.53747C34.758 3.56797 34.7226 3.59846 34.682 3.62896C34.682 3.62896 34.677 3.63404 34.6668 3.6442C34.6161 3.6747 34.5705 3.71028 34.53 3.75094C34.4996 3.78143 34.4844 3.8221 34.4844 3.87292C34.4844 4.06606 34.5705 4.20837 34.7428 4.29986C34.9151 4.38118 35.1026 4.42184 35.3053 4.42184C35.3154 4.42184 35.3205 4.42184 35.3205 4.42184C35.3306 4.42184 35.3407 4.42184 35.3509 4.42184C35.5536 4.41167 35.741 4.36085 35.9133 4.26936C36.0856 4.17788 36.1717 4.05589 36.1717 3.90342Z" fill="white"/>
<path d="M52.645 10.9631C52.645 11.0648 52.5792 11.1562 52.4474 11.2376C52.3258 11.3291 52.189 11.3799 52.037 11.39C52.0269 11.39 52.0167 11.39 52.0066 11.39C52.0066 11.39 52.0015 11.39 51.9914 11.39L47.5223 11.4053C47.5223 11.3951 47.4868 11.3748 47.4158 11.3443C47.355 11.324 47.2841 11.2986 47.203 11.2681C47.1118 11.2274 47.0308 11.1766 46.9598 11.1156C46.899 11.0648 46.8686 11.0089 46.8686 10.9479C46.8686 10.836 46.9294 10.7395 47.051 10.6582C47.1828 10.5667 47.3398 10.5209 47.5223 10.5209H47.8871L47.5679 9.16388H44.8621L44.5124 10.5209H44.8773C45.0495 10.5209 45.2015 10.5616 45.3333 10.6429C45.465 10.7242 45.5309 10.8259 45.5309 10.9479C45.5309 11.0597 45.465 11.1613 45.3333 11.2528C45.2015 11.3443 45.0495 11.39 44.8773 11.39L42.5819 11.4053C42.5515 11.3951 42.5059 11.3799 42.4451 11.3596C42.3944 11.3494 42.3387 11.3291 42.2779 11.2986C42.1866 11.2579 42.1056 11.2071 42.0346 11.1461C41.9637 11.0851 41.9282 11.019 41.9282 10.9479C41.9282 10.8259 41.9941 10.7242 42.1258 10.6429C42.2576 10.5616 42.4096 10.5209 42.5819 10.5209H42.9619L45.3637 1.00635H44.8012C44.6188 1.00635 44.4618 0.965689 44.33 0.884367C44.2084 0.792881 44.1476 0.686147 44.1476 0.564166C44.1476 0.442184 44.2084 0.340532 44.33 0.259211C44.4618 0.17789 44.6188 0.13723 44.8012 0.13723H48.9208C49.1032 0.13723 49.2552 0.17789 49.3768 0.259211C49.5085 0.340532 49.5744 0.442184 49.5744 0.564166L51.8546 10.5209H51.9914C52.1738 10.5209 52.3258 10.5667 52.4474 10.6582C52.5792 10.7395 52.645 10.836 52.645 10.9479V10.9631ZM47.3702 8.35575L46.4886 4.49808C46.4784 4.43709 46.448 4.39134 46.3974 4.36085C46.3568 4.33035 46.3112 4.3151 46.2606 4.3151C46.2504 4.3151 46.2403 4.3151 46.2302 4.3151C46.2302 4.3151 46.2251 4.32019 46.215 4.33035C46.1744 4.34052 46.1339 4.36085 46.0933 4.39134C46.0629 4.42184 46.0427 4.45742 46.0325 4.49808L45.0597 8.35575H47.3702Z" fill="white"/>
<path d="M63.128 10.9326C63.128 11.0139 63.0875 11.0902 63.0064 11.1613C62.9254 11.2325 62.8341 11.2884 62.7328 11.3291C62.6821 11.3494 62.6365 11.3646 62.596 11.3748C62.5555 11.385 62.5149 11.39 62.4744 11.39C61.9778 11.39 61.4863 11.39 60.9999 11.39C60.5134 11.39 60.027 11.39 59.5406 11.39C59.1453 11.39 58.8717 11.2376 58.7197 10.9326C58.5677 10.6378 58.4765 10.3075 58.4461 9.94151C58.4359 9.8297 58.4258 9.71788 58.4157 9.60606C58.4157 9.49425 58.4157 9.38751 58.4157 9.28586C58.4157 9.22487 58.4157 9.16388 58.4157 9.10289C58.4157 9.0419 58.4207 8.98599 58.4309 8.93516C58.4309 8.88434 58.4309 8.8386 58.4309 8.79793C58.4309 8.74711 58.4309 8.70137 58.4309 8.6607C58.4309 8.23377 58.2941 7.95931 58.0204 7.83733C57.757 7.71535 57.3871 7.65944 56.9108 7.6696V10.3989L57.078 10.4904C57.2502 10.4904 57.4023 10.5362 57.534 10.6277C57.6657 10.7191 57.7316 10.8157 57.7316 10.9174C57.7316 11.0495 57.6657 11.1613 57.534 11.2528C57.4023 11.3443 57.2502 11.39 57.078 11.39L52.9889 11.4053C52.7963 11.3951 52.6392 11.3443 52.5176 11.2528C52.396 11.1613 52.3352 11.0495 52.3352 10.9174C52.3352 10.8157 52.396 10.7191 52.5176 10.6277C52.6392 10.5362 52.7963 10.4904 52.9889 10.4904L53.1105 10.3989V1.11308C53.0699 1.09275 53.0294 1.07242 52.9889 1.05209C52.9483 1.03176 52.9027 1.01651 52.852 1.00635C52.8419 0.996184 52.8267 0.991102 52.8064 0.991102C52.7862 0.980937 52.7659 0.975854 52.7456 0.975854C52.6342 0.935194 52.5328 0.894533 52.4416 0.853872C52.3605 0.803047 52.32 0.706478 52.32 0.564166C52.32 0.442184 52.3808 0.340532 52.5024 0.259211C52.624 0.167725 52.776 0.121982 52.9585 0.121982H58.6133C59.8598 0.121982 60.8377 0.503175 61.5471 1.26556C62.2666 2.02795 62.6568 2.86657 62.7176 3.78143C62.7277 3.83226 62.7328 3.88309 62.7328 3.93391C62.7328 3.97457 62.7328 4.02032 62.7328 4.07114C62.7328 4.8132 62.4947 5.49934 62.0183 6.12958C61.5522 6.75982 60.8124 7.16643 59.799 7.3494V7.45614L60.4526 7.59336C60.5134 7.60353 60.5742 7.61878 60.635 7.63911C60.706 7.65944 60.7769 7.68485 60.8479 7.71535C61.1924 7.83733 61.5116 8.01522 61.8055 8.24902C62.0994 8.47265 62.2717 8.70645 62.3224 8.95041C62.3325 8.97074 62.3376 8.99107 62.3376 9.0114C62.3376 9.03173 62.3376 9.05206 62.3376 9.07239C62.3376 9.09272 62.3325 9.1283 62.3224 9.17913C62.3224 9.22995 62.3224 9.29094 62.3224 9.3621C62.3224 9.42309 62.3173 9.48916 62.3072 9.56032C62.3072 9.62131 62.3072 9.68739 62.3072 9.75854C62.3072 9.76871 62.3072 9.77887 62.3072 9.78904C62.3072 9.7992 62.3072 9.80937 62.3072 9.81953C62.3072 9.98217 62.3173 10.1296 62.3376 10.2617C62.3578 10.3939 62.4034 10.4701 62.4744 10.4904C62.4947 10.5006 62.5099 10.5108 62.52 10.5209C62.5403 10.5209 62.5605 10.5209 62.5808 10.5209C62.7227 10.5718 62.8493 10.6277 62.9608 10.6887C63.0723 10.7496 63.128 10.8259 63.128 10.9174V10.9326ZM58.3245 6.17533V1.72299C58.3245 1.52985 58.2333 1.38754 58.0508 1.29606C57.8786 1.20457 57.686 1.15883 57.4732 1.15883C57.2604 1.15883 57.0678 1.20965 56.8956 1.3113C56.7233 1.40279 56.6371 1.54002 56.6371 1.72299C56.6371 1.76365 56.6523 1.79923 56.6827 1.82973C56.7131 1.86022 56.7486 1.89072 56.7891 1.92121C56.7891 1.92121 56.7891 1.9263 56.7891 1.93646C56.7993 1.93646 56.8043 1.93646 56.8043 1.93646C56.855 1.96696 56.8956 2.00253 56.926 2.04319C56.9665 2.07369 56.9868 2.11435 56.9868 2.16518V5.6874C56.9868 5.72806 56.9665 5.76872 56.926 5.80938C56.8956 5.85004 56.8601 5.88562 56.8195 5.91612C56.7689 5.94661 56.7233 5.98219 56.6827 6.02285C56.6523 6.05334 56.6371 6.09401 56.6371 6.14483C56.6371 6.33797 56.7233 6.48028 56.8956 6.57177C57.0678 6.65309 57.2553 6.69375 57.458 6.69375C57.4681 6.69375 57.4732 6.69375 57.4732 6.69375C57.4833 6.69375 57.4935 6.69375 57.5036 6.69375C57.7063 6.68358 57.8938 6.63276 58.066 6.54127C58.2383 6.44979 58.3245 6.3278 58.3245 6.17533Z" fill="white"/>
<path d="M72.2066 4.80303C73.2504 5.0165 74.0307 5.43327 74.5476 6.05334C75.0644 6.66325 75.3329 7.31382 75.3532 8.00505C75.3532 8.01522 75.3532 8.02538 75.3532 8.03555C75.3532 8.04571 75.3532 8.05588 75.3532 8.06604C75.3431 8.89959 74.9833 9.66197 74.2739 10.3532C73.5747 11.0444 72.5461 11.39 71.1881 11.39L64.8644 11.4053C64.6617 11.3951 64.5047 11.3494 64.3932 11.2681C64.2918 11.1867 64.2361 11.0953 64.226 10.9936C64.226 10.9834 64.226 10.9733 64.226 10.9631C64.226 10.9631 64.226 10.958 64.226 10.9479C64.226 10.8462 64.2817 10.7496 64.3932 10.6582C64.5148 10.5565 64.6871 10.5057 64.91 10.5057L65.0316 10.3989V1.03685C64.8087 1.03685 64.6313 0.991102 64.4996 0.899616C64.378 0.808129 64.307 0.706478 64.2868 0.594661C64.2766 0.584496 64.2716 0.574331 64.2716 0.564166C64.2716 0.543835 64.2716 0.528587 64.2716 0.518422C64.2716 0.416771 64.3172 0.330367 64.4084 0.259211C64.5097 0.17789 64.6567 0.13723 64.8492 0.13723H71.5681C72.6829 0.13723 73.5291 0.386275 74.1067 0.884367C74.6844 1.37229 74.9732 1.91613 74.9732 2.51587C74.9732 3.0343 74.7452 3.51714 74.2891 3.96441C73.8331 4.40151 73.1389 4.68105 72.2066 4.80303ZM70.6713 9.94151V5.96186C70.6713 5.76872 70.5801 5.62641 70.3976 5.53492C70.2254 5.44344 70.0328 5.39769 69.82 5.39769C69.6072 5.39769 69.4146 5.44852 69.2423 5.55017C69.0701 5.64166 68.9839 5.77889 68.9839 5.96186C68.9839 6.00252 68.9991 6.0381 69.0295 6.06859C69.0599 6.09909 69.0954 6.12958 69.1359 6.16008C69.1359 6.16008 69.1359 6.16516 69.1359 6.17533C69.1461 6.17533 69.1511 6.17533 69.1511 6.17533C69.2018 6.20582 69.2423 6.2414 69.2727 6.28206C69.3133 6.31256 69.3336 6.35322 69.3336 6.40404V9.46883C69.3336 9.50949 69.3133 9.55016 69.2727 9.59082C69.2423 9.63148 69.2069 9.66705 69.1663 9.69755C69.1562 9.69755 69.1461 9.70263 69.1359 9.7128C69.0954 9.74329 69.0599 9.77379 69.0295 9.80428C68.9991 9.83478 68.9839 9.87036 68.9839 9.91102C68.9839 10.1042 69.0701 10.2465 69.2423 10.338C69.4146 10.4193 69.6021 10.4599 69.8048 10.4599C69.8149 10.4599 69.82 10.4599 69.82 10.4599C69.8301 10.4599 69.8403 10.4599 69.8504 10.4599C70.0531 10.4498 70.2406 10.3989 70.4128 10.3075C70.5851 10.216 70.6713 10.094 70.6713 9.94151ZM70.6713 3.90342V1.61626C70.6713 1.42312 70.5801 1.28081 70.3976 1.18932C70.2254 1.09784 70.0328 1.05209 69.82 1.05209C69.6072 1.05209 69.4146 1.10292 69.2423 1.20457C69.0701 1.29606 68.9839 1.43329 68.9839 1.61626C68.9839 1.65692 68.9991 1.6925 69.0295 1.72299C69.0599 1.75349 69.0954 1.78398 69.1359 1.81448C69.1461 1.81448 69.1511 1.81448 69.1511 1.81448C69.1511 1.81448 69.1562 1.81956 69.1663 1.82973C69.2069 1.86022 69.2423 1.89072 69.2727 1.92121C69.3133 1.95171 69.3336 1.99237 69.3336 2.04319V3.43074C69.3336 3.4714 69.3184 3.50698 69.2879 3.53747C69.2575 3.56797 69.2221 3.59846 69.1815 3.62896C69.1815 3.62896 69.1765 3.63404 69.1663 3.6442C69.1157 3.6747 69.0701 3.71028 69.0295 3.75094C68.9991 3.78143 68.9839 3.8221 68.9839 3.87292C68.9839 4.06606 69.0701 4.20837 69.2423 4.29986C69.4146 4.38118 69.6021 4.42184 69.8048 4.42184C69.8149 4.42184 69.82 4.42184 69.82 4.42184C69.8301 4.42184 69.8403 4.42184 69.8504 4.42184C70.0531 4.41167 70.2406 4.36085 70.4128 4.26936C70.5851 4.17788 70.6713 4.05589 70.6713 3.90342Z" fill="white"/>
<path d="M84.9252 9.69755L84.6364 10.9631C84.6262 10.9834 84.6161 11.0089 84.606 11.0393C84.606 11.08 84.6009 11.1156 84.5908 11.1461C84.5502 11.2579 84.4844 11.3596 84.3932 11.451C84.3019 11.5425 84.1702 11.5883 83.9979 11.5883C83.9067 11.5883 83.8206 11.5832 83.7395 11.573C83.6584 11.5629 83.5824 11.5476 83.5115 11.5273C83.4912 11.5171 83.471 11.5069 83.4507 11.4968C83.4304 11.4968 83.4101 11.4968 83.3899 11.4968C83.2885 11.4765 83.1821 11.4561 83.0707 11.4358C82.9693 11.4155 82.8426 11.4053 82.6906 11.4053L76.975 11.4205C76.975 11.4104 76.9395 11.39 76.8686 11.3596C76.8078 11.3392 76.7368 11.3087 76.6558 11.2681C76.5646 11.2274 76.4835 11.1766 76.4125 11.1156C76.3517 11.0648 76.3213 11.0089 76.3213 10.9479C76.3213 10.836 76.3821 10.7395 76.5037 10.6582C76.6355 10.5667 76.7926 10.5209 76.975 10.5209L77.203 10.4447V1.12833L76.975 1.03685C76.9649 1.03685 76.9243 1.02668 76.8534 1.00635C76.7926 0.986019 76.7267 0.955524 76.6558 0.914863C76.5747 0.874203 76.4987 0.828459 76.4277 0.777634C76.3568 0.716643 76.3213 0.650569 76.3213 0.579413C76.3213 0.457431 76.3821 0.35578 76.5037 0.274459C76.6355 0.193138 76.7926 0.152477 76.975 0.152477H82.0218C82.0724 0.152477 82.1282 0.152477 82.189 0.152477C82.2498 0.142312 82.3106 0.132147 82.3714 0.121982C82.4018 0.111816 82.4322 0.106734 82.4626 0.106734C82.5031 0.0965686 82.5386 0.0864035 82.569 0.0762385C82.6298 0.0660735 82.6856 0.0559082 82.7362 0.0457426C82.7869 0.0355776 82.8224 0.0254125 82.8426 0.0152475C82.8528 0.0152475 82.8629 0.0152475 82.873 0.0152475C82.8933 0.00508251 82.9085 0 82.9186 0C82.9288 0 82.9389 0 82.949 0C82.9693 0 82.9845 0 82.9947 0C83.0352 0 83.0757 0.00508251 83.1163 0.0152475C83.1568 0.0152475 83.2024 0.02033 83.2531 0.030495C83.3747 0.0711557 83.4912 0.132147 83.6027 0.213468C83.7243 0.294789 83.8104 0.391358 83.8611 0.503175L84.5452 1.82973C84.5654 1.86022 84.5806 1.89072 84.5908 1.92121C84.6009 1.95171 84.6009 1.9822 84.5908 2.0127C84.5908 2.09402 84.5553 2.17534 84.4844 2.25666C84.4236 2.32782 84.3374 2.37864 84.2259 2.40914C84.2057 2.41931 84.1803 2.42947 84.1499 2.43963C84.1297 2.43963 84.1094 2.43963 84.0891 2.43963C84.0587 2.4498 84.0283 2.45488 83.9979 2.45488C83.9777 2.45488 83.9574 2.45488 83.9371 2.45488C83.8054 2.45488 83.6838 2.43455 83.5723 2.39389C83.4608 2.34307 83.3848 2.28208 83.3443 2.21092L82.6146 1.03685H81.5201L81.3833 1.15883V4.63531H82.5538C82.5437 4.61498 82.5386 4.59973 82.5386 4.58956C82.5386 4.56923 82.5386 4.55399 82.5386 4.54382C82.5386 4.52349 82.5386 4.50824 82.5386 4.49808C82.5487 4.47775 82.5538 4.45742 82.5538 4.43709C82.5741 4.3761 82.6096 4.32019 82.6602 4.26936C82.721 4.20837 82.7818 4.16263 82.8426 4.13213C82.8832 4.1118 82.9186 4.10164 82.949 4.10164C82.9896 4.09147 83.0301 4.08639 83.0707 4.08639C83.0909 4.08639 83.1112 4.08639 83.1315 4.08639C83.1517 4.08639 83.172 4.09147 83.1923 4.10164C83.2733 4.1118 83.3493 4.13213 83.4203 4.16263C83.4912 4.18296 83.552 4.21345 83.6027 4.25411C83.6432 4.27444 83.6736 4.29477 83.6939 4.3151C83.7142 4.32527 83.7294 4.34052 83.7395 4.36085L84.7428 5.96186C84.7529 5.97202 84.758 5.98727 84.758 6.0076C84.7681 6.01777 84.7732 6.02793 84.7732 6.0381C84.7833 6.04826 84.7884 6.06351 84.7884 6.08384C84.7884 6.09401 84.7884 6.10417 84.7884 6.11434C84.7884 6.19566 84.7529 6.27698 84.682 6.3583C84.6212 6.42945 84.5249 6.48536 84.3932 6.52602C84.3729 6.53619 84.3476 6.54635 84.3172 6.55652C84.2969 6.55652 84.2766 6.55652 84.2563 6.55652C84.2259 6.56668 84.1955 6.57177 84.1651 6.57177C84.1449 6.57177 84.1246 6.57177 84.1043 6.57177C83.9726 6.57177 83.851 6.54635 83.7395 6.49553C83.6382 6.4447 83.5622 6.38371 83.5115 6.31256L83.1619 5.79413C83.1011 5.67215 82.9947 5.59591 82.8426 5.56542C82.7008 5.53492 82.4829 5.51967 82.189 5.51967H81.3833V10.5209H82.5234C82.6957 10.5209 82.8325 10.4904 82.9338 10.4294C83.0352 10.3685 83.1112 10.2973 83.1619 10.216C83.172 10.2058 83.1771 10.1956 83.1771 10.1855C83.1872 10.1753 83.1973 10.1651 83.2075 10.155L83.7243 9.3316C83.775 9.25028 83.8561 9.18929 83.9675 9.14863C84.079 9.10797 84.2006 9.08764 84.3324 9.08764C84.383 9.08764 84.4286 9.08764 84.4692 9.08764C84.5198 9.08764 84.5654 9.09781 84.606 9.11814C84.7276 9.1588 84.8137 9.21979 84.8644 9.30111C84.9151 9.38243 84.9404 9.46883 84.9404 9.56032C84.9404 9.58065 84.9404 9.60606 84.9404 9.63656C84.9404 9.65689 84.9353 9.67722 84.9252 9.69755Z" fill="white"/>
<path d="M96.7369 10.9326C96.7369 11.0139 96.6963 11.0902 96.6152 11.1613C96.5342 11.2325 96.443 11.2884 96.3416 11.3291C96.291 11.3494 96.2454 11.3646 96.2048 11.3748C96.1643 11.385 96.1237 11.39 96.0832 11.39C95.5866 11.39 95.0951 11.39 94.6087 11.39C94.1223 11.39 93.6358 11.39 93.1494 11.39C92.7542 11.39 92.4805 11.2376 92.3285 10.9326C92.1765 10.6378 92.0853 10.3075 92.0549 9.94151C92.0448 9.8297 92.0346 9.71788 92.0245 9.60606C92.0245 9.49425 92.0245 9.38751 92.0245 9.28586C92.0245 9.22487 92.0245 9.16388 92.0245 9.10289C92.0245 9.0419 92.0296 8.98599 92.0397 8.93516C92.0397 8.88434 92.0397 8.8386 92.0397 8.79793C92.0397 8.74711 92.0397 8.70137 92.0397 8.6607C92.0397 8.23377 91.9029 7.95931 91.6293 7.83733C91.3658 7.71535 90.9959 7.65944 90.5196 7.6696V10.3989L90.6868 10.4904C90.8591 10.4904 91.0111 10.5362 91.1428 10.6277C91.2746 10.7191 91.3404 10.8157 91.3404 10.9174C91.3404 11.0495 91.2746 11.1613 91.1428 11.2528C91.0111 11.3443 90.8591 11.39 90.6868 11.39L86.5977 11.4053C86.4051 11.3951 86.2481 11.3443 86.1264 11.2528C86.0048 11.1613 85.944 11.0495 85.944 10.9174C85.944 10.8157 86.0048 10.7191 86.1264 10.6277C86.2481 10.5362 86.4051 10.4904 86.5977 10.4904L86.7193 10.3989V1.11308C86.6788 1.09275 86.6382 1.07242 86.5977 1.05209C86.5571 1.03176 86.5115 1.01651 86.4609 1.00635C86.4507 0.996184 86.4355 0.991102 86.4153 0.991102C86.395 0.980937 86.3747 0.975854 86.3545 0.975854C86.243 0.935194 86.1416 0.894533 86.0504 0.853872C85.9694 0.803047 85.9288 0.706478 85.9288 0.564166C85.9288 0.442184 85.9896 0.340532 86.1112 0.259211C86.2329 0.167725 86.3849 0.121982 86.5673 0.121982H92.2221C93.4686 0.121982 94.4465 0.503175 95.1559 1.26556C95.8755 2.02795 96.2656 2.86657 96.3264 3.78143C96.3366 3.83226 96.3416 3.88309 96.3416 3.93391C96.3416 3.97457 96.3416 4.02032 96.3416 4.07114C96.3416 4.8132 96.1035 5.49934 95.6272 6.12958C95.161 6.75982 94.4212 7.16643 93.4078 7.3494V7.45614L94.0615 7.59336C94.1223 7.60353 94.1831 7.61878 94.2439 7.63911C94.3148 7.65944 94.3857 7.68485 94.4567 7.71535C94.8012 7.83733 95.1205 8.01522 95.4144 8.24902C95.7083 8.47265 95.8805 8.70645 95.9312 8.95041C95.9413 8.97074 95.9464 8.99107 95.9464 9.0114C95.9464 9.03173 95.9464 9.05206 95.9464 9.07239C95.9464 9.09272 95.9413 9.1283 95.9312 9.17913C95.9312 9.22995 95.9312 9.29094 95.9312 9.3621C95.9312 9.42309 95.9261 9.48916 95.916 9.56032C95.916 9.62131 95.916 9.68739 95.916 9.75854C95.916 9.76871 95.916 9.77887 95.916 9.78904C95.916 9.7992 95.916 9.80937 95.916 9.81953C95.916 9.98217 95.9261 10.1296 95.9464 10.2617C95.9667 10.3939 96.0123 10.4701 96.0832 10.4904C96.1035 10.5006 96.1187 10.5108 96.1288 10.5209C96.1491 10.5209 96.1693 10.5209 96.1896 10.5209C96.3315 10.5718 96.4582 10.6277 96.5696 10.6887C96.6811 10.7496 96.7369 10.8259 96.7369 10.9174V10.9326ZM91.9333 6.17533V1.72299C91.9333 1.52985 91.8421 1.38754 91.6597 1.29606C91.4874 1.20457 91.2948 1.15883 91.082 1.15883C90.8692 1.15883 90.6767 1.20965 90.5044 1.3113C90.3321 1.40279 90.246 1.54002 90.246 1.72299C90.246 1.76365 90.2612 1.79923 90.2916 1.82973C90.322 1.86022 90.3574 1.89072 90.398 1.92121C90.398 1.92121 90.398 1.9263 90.398 1.93646C90.4081 1.93646 90.4132 1.93646 90.4132 1.93646C90.4638 1.96696 90.5044 2.00253 90.5348 2.04319C90.5753 2.07369 90.5956 2.11435 90.5956 2.16518V5.6874C90.5956 5.72806 90.5753 5.76872 90.5348 5.80938C90.5044 5.85004 90.4689 5.88562 90.4284 5.91612C90.3777 5.94661 90.3321 5.98219 90.2916 6.02285C90.2612 6.05334 90.246 6.09401 90.246 6.14483C90.246 6.33797 90.3321 6.48028 90.5044 6.57177C90.6767 6.65309 90.8641 6.69375 91.0668 6.69375C91.077 6.69375 91.082 6.69375 91.082 6.69375C91.0922 6.69375 91.1023 6.69375 91.1124 6.69375C91.3151 6.68358 91.5026 6.63276 91.6749 6.54127C91.8472 6.44979 91.9333 6.3278 91.9333 6.17533Z" fill="white"/>
<path d="M41.8059 30.0554C41.5242 31.6552 40.7371 32.9282 39.4447 33.8744C38.1522 34.8205 36.6692 35.285 34.9957 35.2678C34.8797 35.2678 34.7637 35.2678 34.6477 35.2678C34.5483 35.2678 34.4406 35.2592 34.3246 35.242C34.2583 35.242 34.1837 35.2334 34.1009 35.2162C34.0346 35.2162 33.96 35.2076 33.8772 35.1904C33.0487 35.1044 32.2533 34.9323 31.4911 34.6743C30.7289 34.4163 30.1738 33.969 29.8259 33.3325C29.7927 33.2809 29.7679 33.1863 29.7513 33.0486C29.7347 32.8938 29.7264 32.7304 29.7264 32.5584C29.7264 32.4207 29.7264 32.2917 29.7264 32.1713C29.743 32.0509 29.7596 31.9563 29.7761 31.8874C29.859 31.595 30.1075 31.3542 30.5218 31.1649C30.9526 30.9757 31.4083 30.8811 31.8888 30.8811C31.9219 30.8811 31.9551 30.8811 31.9882 30.8811C32.0379 30.8811 32.0794 30.8811 32.1125 30.8811C32.7422 30.9155 33.231 31.1047 33.5789 31.4488C33.9269 31.7928 34.1837 32.1627 34.3494 32.5584C34.3991 32.6788 34.4406 32.7992 34.4737 32.9196C34.5068 33.04 34.54 33.1519 34.5731 33.2551C34.6228 33.4787 34.7057 33.6421 34.8217 33.7453C34.9542 33.8314 35.1034 33.8744 35.2691 33.8744C35.3353 33.8744 35.4016 33.8658 35.4679 33.8486C35.5507 33.8314 35.6253 33.8142 35.6916 33.797C35.9733 33.6765 36.2301 33.4701 36.4621 33.1777C36.7106 32.8852 36.8349 32.567 36.8349 32.2229C36.8183 32.1197 36.7935 32.0251 36.7603 31.9391C36.7438 31.8358 36.7189 31.7412 36.6858 31.6552C36.4704 31.1047 36.0893 30.5628 35.5425 30.0295C34.9957 29.4963 34.4074 28.9716 33.7778 28.4555C33.5458 28.2491 33.3055 28.0512 33.057 27.862C32.8084 27.6556 32.5765 27.4577 32.361 27.2685C31.632 26.6492 31.0437 25.8321 30.5964 24.8171C30.1655 23.7849 29.9253 22.727 29.8756 21.6432C29.8756 21.5916 29.8756 21.54 29.8756 21.4884C29.8756 21.4196 29.8756 21.3594 29.8756 21.3077C29.8756 19.7251 30.3727 18.2973 31.3669 17.0243C32.3776 15.7512 34.0429 15.1147 36.3627 15.1147C36.6278 15.1147 36.9095 15.1406 37.2077 15.1922C37.5226 15.2266 37.8374 15.2868 38.1522 15.3728C38.9641 15.5964 39.7098 15.9319 40.3891 16.3792C41.0685 16.8264 41.4082 17.3167 41.4082 17.85C41.4082 18.2629 41.1928 18.5983 40.762 18.8563C40.3311 19.1144 39.8589 19.252 39.3452 19.2692C39.3287 19.2692 39.3038 19.2692 39.2707 19.2692C39.2541 19.2692 39.2375 19.2692 39.221 19.2692C38.873 19.2692 38.5499 19.209 38.2516 19.0886C37.9534 18.9682 37.7214 18.7703 37.5557 18.4951C37.506 18.4091 37.4646 18.3231 37.4314 18.237C37.3983 18.1338 37.3734 18.0392 37.3569 17.9532C37.3569 17.9188 37.3486 17.893 37.332 17.8758C37.332 17.8414 37.3237 17.807 37.3071 17.7726C37.2906 17.6522 37.2657 17.5403 37.2326 17.4371C37.1994 17.3167 37.1497 17.2135 37.0835 17.1275C36.9675 16.9898 36.8101 16.8866 36.6112 16.8178C36.4289 16.749 36.2301 16.7146 36.0147 16.7146C35.9981 16.7146 35.9816 16.7146 35.965 16.7146C35.965 16.7146 35.9567 16.7146 35.9401 16.7146C35.4762 16.7318 35.0785 16.8952 34.7471 17.2049C34.4323 17.4973 34.4571 17.8328 34.8217 18.2112C34.8548 18.2457 34.8879 18.2801 34.9211 18.3145C34.9542 18.3489 34.9957 18.3833 35.0454 18.4177C35.675 19.0542 36.2964 19.6649 36.9095 20.2498C37.5226 20.8175 38.1025 21.3766 38.6493 21.927C39.5938 22.9248 40.3726 23.9484 40.9857 24.9977C41.6153 26.0299 41.9301 27.2255 41.9301 28.5845C41.9301 28.8082 41.9218 29.049 41.9053 29.307C41.8887 29.5479 41.8556 29.7973 41.8059 30.0554Z" fill="white"/>
<path d="M60.5308 33.9518C60.5308 34.1582 60.4231 34.3302 60.2077 34.4679C59.9923 34.6227 59.7438 34.7001 59.4621 34.7001L52.7513 34.7259C52.4365 34.7087 52.1796 34.6227 51.9808 34.4679C51.7819 34.3302 51.6825 34.1496 51.6825 33.926C51.6825 33.754 51.7819 33.5905 51.9808 33.4357C52.1796 33.2809 52.4365 33.2035 52.7513 33.2035L52.8756 33.0486V24.3268H49.6444V33.0744L49.8681 33.2293C50.1498 33.2293 50.3984 33.3067 50.6138 33.4615C50.8292 33.6163 50.9369 33.7798 50.9369 33.9518C50.9369 34.1754 50.8292 34.356 50.6138 34.4937C50.3984 34.6485 50.1498 34.7259 49.8681 34.7259L43.1573 34.7517C42.8425 34.7345 42.5857 34.6485 42.3868 34.4937C42.188 34.356 42.0886 34.1754 42.0886 33.9518C42.0886 33.7798 42.188 33.6163 42.3868 33.4615C42.5857 33.3067 42.8425 33.2293 43.1573 33.2293L43.3313 33.0744V17.3339L43.1325 17.1791C42.8342 17.1791 42.5774 17.1103 42.362 16.9726C42.1631 16.835 42.0637 16.6544 42.0637 16.4308C42.0637 16.2243 42.1631 16.0523 42.362 15.9147C42.5774 15.7599 42.8342 15.6824 43.1325 15.6824H49.8433C50.1415 15.6824 50.3901 15.7599 50.5889 15.9147C50.8043 16.0523 50.912 16.2243 50.912 16.4308C50.912 16.6544 50.8043 16.835 50.5889 16.9726C50.3901 17.1103 50.1415 17.1791 49.8433 17.1791L49.6444 17.3339V23.0366H52.8756V17.3081L52.6767 17.1791C52.4116 17.1791 52.1713 17.1103 51.9559 16.9726C51.7405 16.835 51.6328 16.6544 51.6328 16.4308C51.6328 16.2071 51.7405 16.0265 51.9559 15.8889C52.1713 15.7512 52.4116 15.6824 52.6767 15.6824H59.3875C59.7023 15.6824 59.9592 15.7512 60.158 15.8889C60.3568 16.0265 60.4563 16.2071 60.4563 16.4308C60.4563 16.6544 60.3568 16.835 60.158 16.9726C59.9592 17.1103 59.7023 17.1791 59.3875 17.1791L59.2135 17.3081V33.0486L59.4621 33.2035C59.7438 33.2035 59.9923 33.2809 60.2077 33.4357C60.4231 33.5905 60.5308 33.754 60.5308 33.926V33.9518Z" fill="white"/>
<path d="M79.1317 25.1784C79.1317 27.9308 78.3115 30.2876 76.6711 32.2487C75.0307 34.2098 73.0506 35.1904 70.7308 35.1904C68.3944 35.1904 66.4061 34.2098 64.7657 32.2487C63.1252 30.2876 62.305 27.9308 62.305 25.1784C62.305 22.3915 63.1252 20.0175 64.7657 18.0564C66.4061 16.0953 68.3944 15.1147 70.7308 15.1147C73.0506 15.1147 75.0307 16.0953 76.6711 18.0564C78.3115 20.0175 79.1317 22.3915 79.1317 25.1784ZM72.3961 32.5068C72.3961 32.4207 72.3629 32.3519 72.2966 32.3003C72.2469 32.2315 72.1889 32.1713 72.1227 32.1197C72.0398 32.0681 71.9652 32.0079 71.899 31.9391C71.8493 31.8702 71.8244 31.8014 71.8244 31.7326V17.9274C71.8244 17.6005 71.6753 17.3597 71.377 17.2049C71.0953 17.0501 70.7722 16.9726 70.4077 16.9726C70.3911 16.9726 70.3745 16.9726 70.358 16.9726C70.358 16.9726 70.3497 16.9726 70.3331 16.9726C70.0183 16.9898 69.72 17.0759 69.4383 17.2307C69.1732 17.3855 69.0407 17.6177 69.0407 17.9274C69.0407 17.9618 69.049 18.0048 69.0655 18.0564C69.0821 18.0908 69.1069 18.1252 69.1401 18.1596C69.1567 18.194 69.1815 18.237 69.2147 18.2887C69.2644 18.3231 69.3058 18.3575 69.3389 18.3919C69.4218 18.4607 69.4881 18.5209 69.5378 18.5725C69.604 18.6241 69.6372 18.6499 69.6372 18.6499V32.5326C69.6372 32.8078 69.778 33.0228 70.0597 33.1777C70.3414 33.3153 70.6479 33.3927 70.9793 33.4099C70.9959 33.4099 71.0042 33.4099 71.0042 33.4099C71.0208 33.4099 71.0373 33.4099 71.0539 33.4099C71.4019 33.4099 71.7084 33.3411 71.9735 33.2035C72.2552 33.0486 72.3961 32.8164 72.3961 32.5068Z" fill="white"/>
<path d="M96.9048 22.0561C96.9048 23.7935 96.242 25.2902 94.9164 26.546C93.5908 27.8018 92.0001 28.4297 90.1443 28.4297H87.3606V33.0486L87.634 33.2035C87.9157 33.2035 88.1642 33.2809 88.3796 33.4357C88.595 33.5905 88.7027 33.754 88.7027 33.926C88.7027 34.1496 88.595 34.3388 88.3796 34.4937C88.1642 34.6485 87.9157 34.7259 87.634 34.7259L80.9232 34.7517C80.6084 34.7345 80.3515 34.6485 80.1527 34.4937C79.9704 34.3388 79.8793 34.1496 79.8793 33.926C79.8793 33.754 79.9704 33.5905 80.1527 33.4357C80.3515 33.2809 80.6084 33.2035 80.9232 33.2035L81.1469 33.0486V17.3339L80.8983 17.1791C80.6001 17.1791 80.3432 17.1103 80.1278 16.9726C79.929 16.8178 79.8296 16.6286 79.8296 16.405C79.8296 16.1985 79.929 16.0179 80.1278 15.8631C80.3432 15.7082 80.6001 15.6308 80.8983 15.6308H90.1692C92.025 15.6308 93.6074 16.2587 94.9164 17.5145C96.242 18.7703 96.9048 20.2842 96.9048 22.0561ZM89.6721 25.9009V18.3403C89.6721 18.0134 89.5229 17.7726 89.2247 17.6177C88.943 17.4629 88.6282 17.3855 88.2802 17.3855C87.9322 17.3855 87.6174 17.4715 87.3357 17.6436C87.054 17.7984 86.9132 18.0306 86.9132 18.3403C86.9132 18.4091 86.938 18.4693 86.9878 18.5209C87.0375 18.5725 87.0955 18.6241 87.1617 18.6757C87.1783 18.6757 87.1866 18.6757 87.1866 18.6757C87.1866 18.6757 87.1949 18.6843 87.2114 18.7015C87.2777 18.7531 87.3357 18.8047 87.3854 18.8563C87.4517 18.908 87.4849 18.9768 87.4849 19.0628V25.0752C87.4849 25.144 87.4517 25.2128 87.3854 25.2816C87.3357 25.3504 87.2777 25.4106 87.2114 25.4622C87.1286 25.5138 87.054 25.574 86.9878 25.6428C86.938 25.6945 86.9132 25.7633 86.9132 25.8493C86.9132 26.1761 87.054 26.417 87.3357 26.5718C87.6174 26.7094 87.924 26.7782 88.2553 26.7782C88.2719 26.7782 88.2802 26.7782 88.2802 26.7782C88.2968 26.7782 88.3133 26.7782 88.3299 26.7782C88.6613 26.761 88.9678 26.675 89.2495 26.5202C89.5312 26.3654 89.6721 26.1589 89.6721 25.9009Z" fill="white"/>
<circle cx="106.428" cy="31.9191" r="3.57143" fill="#FF7A00"/>
</svg>
